<?xml version="1.0" encoding="UTF-8" standalone="no"?>
<svg
   xmlns:dc="http://purl.org/dc/elements/1.1/"
   xmlns:cc="http://creativecommons.org/ns#"
   xmlns:rdf="http://www.w3.org/1999/02/22-rdf-syntax-ns#"
   xmlns:svg="http://www.w3.org/2000/svg"
   xmlns="http://www.w3.org/2000/svg"
   viewBox="0 0 128 128"
   height="128"
   width="128"
   id="svg4852"
   version="1.1">
  <metadata
     id="metadata4858">
    <rdf:RDF>
      <cc:Work
         rdf:about="">
        <dc:format>image/svg+xml</dc:format>
        <dc:type
           rdf:resource="http://purl.org/dc/dcmitype/StillImage" />
        <dc:title></dc:title>
      </cc:Work>
    </rdf:RDF>
  </metadata>
  <defs
     id="defs4856" />
  <rect
     y="9.0352945"
     x="48.941177"
     height="108.8753"
     width="19.425882"
     id="rect4864"
     style="opacity:0;fill:#444444;fill-opacity:1;stroke:#ffffff;stroke-width:0.5;stroke-miterlimit:4;stroke-dasharray:none;stroke-opacity:1" />
  <rect
     y="21.082354"
     x="25.148235"
     height="82.823532"
     width="23.341177"
     id="rect4866"
     style="opacity:0;fill:#444444;fill-opacity:1;stroke:#ffffff;stroke-width:0.5;stroke-miterlimit:4;stroke-dasharray:none;stroke-opacity:1" />
  <rect
     y="103.90588"
     x="24.244705"
     height="2.2588222"
     width="0.90352947"
     id="rect4868"
     style="opacity:0;fill:#444444;fill-opacity:1;stroke:#ffffff;stroke-width:0.5;stroke-miterlimit:4;stroke-dasharray:none;stroke-opacity:1" />
  <path
     id="path4870"
     d="m 48.941177,111.76897 v -6.14162 h -12 -12 v -12.499997 -12.5 h -8 -7.9999996 v -17.5 -17.5 h 7.9999996 8 v -12.5 -12.5 h 12 12 V 14.490084 8.3528161 c 0,0 7.863686,0.018649 11.749999,0.5372168 9.620421,1.2836941 20.176554,1.2164621 28.417727,6.3432001 12.358087,7.687823 22.684337,20.241535 27.366507,34.022039 3.26098,9.597685 3.0541,20.97811 -0.6794,30.402045 -5.13914,12.971995 -15.969602,24.030243 -27.978497,31.134453 -8.286805,4.9023 -18.592354,5.2317 -28.126336,6.5759 -3.552763,0.50091 -10.75,0.54292 -10.75,0.54292 z"
     style="fill:#e60028;fill-opacity:1" />
  <path
     d="m 118.21177,61.364704 a 37.571766,51.727058 0 0 1 -0.003,0.633775 L 80.639999,61.364704 Z"
     id="path4937"
     style="opacity:0;fill:#e60028;fill-opacity:1;stroke:#ffffff;stroke-width:0.5;stroke-miterlimit:4;stroke-dasharray:none;stroke-opacity:1" />
  <path
     d="m 97.581173,37.496471 a 8.4329414,4.3670588 0 0 1 -6.33e-4,0.05351 l -8.432308,-0.05351 z"
     id="path4939"
     style="opacity:0;fill:#e60028;fill-opacity:1;stroke:#ffffff;stroke-width:0.5;stroke-miterlimit:4;stroke-dasharray:none;stroke-opacity:1" />
  <path
     d="m 97.581176,51.049412 a 0.15058823,17.92 0 0 1 -1.1e-5,0.219561 l -0.150577,-0.219561 z"
     id="path4941"
     style="opacity:0;fill:#e60028;fill-opacity:1;stroke:#ffffff;stroke-width:0.5;stroke-miterlimit:4;stroke-dasharray:none;stroke-opacity:1" />
  <path
     d="m 123.33177,116.85647 a 43.670589,9.6376467 0 0 1 -16.05129,7.46536 l -27.619301,-7.46536 z"
     id="path4943"
     style="opacity:0;fill:#e60028;fill-opacity:1;stroke:#ffffff;stroke-width:0.5;stroke-miterlimit:4;stroke-dasharray:none;stroke-opacity:1" />
  <path
     d="M 103.90588,74.390587 A 24.621176,49.242352 0 0 1 94.856265,112.53394 L 79.284706,74.390587 Z"
     id="path4948"
     style="opacity:0;fill:#e60028;fill-opacity:1;stroke:#ffffff;stroke-width:0.5;stroke-miterlimit:4;stroke-dasharray:none;stroke-opacity:1" />
  <path
     d="M 48.941177,4.7435293 A 2.3341177,0.67764705 0 0 1 48.083262,5.2684379 L 46.607059,4.7435293 Z"
     id="path4952"
     style="opacity:0;fill:#e60028;fill-opacity:1;stroke:#ffffff;stroke-width:0.5;stroke-miterlimit:4;stroke-dasharray:none;stroke-opacity:1" />
  <path
     d="M 75.595295,37.64706 A 19.124706,34.334118 0 0 1 68.565929,64.242427 L 56.470589,37.64706 Z"
     id="path4954"
     style="opacity:0;fill:#e60028;fill-opacity:1;stroke:#ffffff;stroke-width:0.5;stroke-miterlimit:4;stroke-dasharray:none;stroke-opacity:1" />
  <path
     d="m 17.167059,53.00706 -48.286716,-27.204922 10.952002,-54.330179 55.055426,-6.372975 23.074122,50.391463 z"
     id="path4956"
     style="opacity:0;fill:#e60028;fill-opacity:1;stroke:#ffffff;stroke-width:0.5;stroke-miterlimit:4;stroke-dasharray:none;stroke-opacity:1" />
</svg>
